<svg xmlns="http://www.w3.org/2000/svg" width="26.667" height="29.334" viewBox="0 0 26.667 29.334">
  <g id="coins" transform="translate(-2.667 -1.333)">
    <path id="Vector" d="M8.667,29.333a12.092,12.092,0,0,0,4.667-.907A11.893,11.893,0,0,0,18,29.333c4.86,0,8.667-2.593,8.667-5.905V17.905C26.667,14.593,22.86,12,18,12c-.225,0-.447.011-.667.023V5.777C17.333,2.533,13.527,0,8.667,0S0,2.533,0,5.777V23.556C0,26.8,3.807,29.333,8.667,29.333ZM24,23.428c0,1.532-2.464,3.239-6,3.239s-6-1.707-6-3.239V22.195a11.105,11.105,0,0,0,6,1.615,11.105,11.105,0,0,0,6-1.615Zm-6-8.761c3.536,0,6,1.707,6,3.239s-2.464,3.237-6,3.237-6-1.707-6-3.237S14.464,14.667,18,14.667Zm-9.333-12c3.536,0,6,1.64,6,3.111s-2.464,3.112-6,3.112-6-1.64-6-3.112S5.131,2.667,8.667,2.667Zm-6,7.309a11.288,11.288,0,0,0,6,1.58,11.288,11.288,0,0,0,6-1.58V12.44A8.627,8.627,0,0,0,10.8,14.583a10.259,10.259,0,0,1-2.133.232c-3.536,0-6-1.64-6-3.111Zm0,5.927a11.3,11.3,0,0,0,6,1.579c.237,0,.467-.029.7-.041a4.133,4.133,0,0,0-.033.465v2.78c-.224.013-.44.056-.667.056-3.536,0-6-1.64-6-3.112Zm0,5.925a11.288,11.288,0,0,0,6,1.58c.224,0,.444-.017.667-.028v.048a4.621,4.621,0,0,0,1.225,3.057,10.452,10.452,0,0,1-1.892.181c-3.536,0-6-1.64-6-3.111Z" transform="translate(2.667 1.333)" fill="#999"/>
  </g>
</svg>
