<svg xmlns="http://www.w3.org/2000/svg" width="29.333" height="29.333" viewBox="0 0 29.333 29.333">
  <g id="dashboard" transform="translate(-1.333 -1.333)">
    <path id="Vector" d="M12,13.333H1.333A1.333,1.333,0,0,1,0,12V1.333A1.333,1.333,0,0,1,1.333,0H12a1.333,1.333,0,0,1,1.333,1.333V12A1.333,1.333,0,0,1,12,13.333ZM2.667,10.667h8v-8h-8Z" transform="translate(17.333 1.333)" fill="#999"/>
    <path id="Vector-2" data-name="Vector" d="M6.667,13.333a6.675,6.675,0,1,1,4.712-1.955,6.667,6.667,0,0,1-4.712,1.955Zm0-10.667A4,4,0,1,0,9.5,3.838,4,4,0,0,0,6.667,2.667Z" transform="translate(17.333 17.333)" fill="#999"/>
    <path id="Vector-3" data-name="Vector" d="M12,0H1.333A1.333,1.333,0,0,0,0,1.333V12a1.333,1.333,0,0,0,1.333,1.333H12A1.333,1.333,0,0,0,13.333,12V1.333A1.333,1.333,0,0,0,12,0ZM10.667,10.667h-8v-8h8Z" transform="translate(1.333 17.333)" fill="#999"/>
    <path id="Vector-4" data-name="Vector" d="M12,13.333H1.333A1.333,1.333,0,0,1,0,12V1.333A1.333,1.333,0,0,1,1.333,0H12a1.333,1.333,0,0,1,1.333,1.333V12A1.333,1.333,0,0,1,12,13.333ZM2.667,10.667h8v-8h-8Z" transform="translate(1.333 1.333)" fill="#999"/>
  </g>
</svg>
