<svg xmlns="http://www.w3.org/2000/svg" width="26.667" height="24" viewBox="0 0 26.667 24">
  <g id="_003-history" data-name="003-history" transform="translate(-2.666 -4)">
    <g id="Group">
      <path id="Vector" d="M3.391,7.888A12,12,0,1,1,4.275,18a1.333,1.333,0,1,1,2.308-1.336A9.331,9.331,0,1,0,5.67,9.509L8.006,8.176a1.333,1.333,0,1,1,1.323,2.315L4.662,13.157a1.334,1.334,0,0,1-1.848-.549L.147,7.4A1.333,1.333,0,0,1,2.52,6.188ZM16,11.448l3.609,3.609a1.333,1.333,0,0,1-1.885,1.885l-4-4A1.332,1.332,0,0,1,13.334,12V6.667a1.333,1.333,0,0,1,2.667,0Z" transform="translate(2.666 4)" fill="#999"/>
    </g>
  </g>
</svg>
