<svg xmlns="http://www.w3.org/2000/svg" width="29.333" height="29.336" viewBox="0 0 29.333 29.336">
  <g id="invoice" transform="translate(-1.333 -1.333)">
    <path id="Vector" d="M24,0H5.333A5.333,5.333,0,0,0,0,5.333v9.333A1.333,1.333,0,0,0,1.333,16H8V28a1.332,1.332,0,0,0,2.2,1.013L14,25.76l3.8,3.253a1.333,1.333,0,0,0,1.733,0l3.8-3.253,3.8,3.253a1.333,1.333,0,0,0,.867.32,1.413,1.413,0,0,0,.56-.12A1.333,1.333,0,0,0,29.333,28V5.333A5.333,5.333,0,0,0,24,0ZM2.667,13.333v-8A2.667,2.667,0,1,1,8,5.333v8Zm24,11.773L24.2,22.987a1.333,1.333,0,0,0-1.733,0l-3.8,3.253-3.8-3.253a1.333,1.333,0,0,0-1.733,0l-2.467,2.12V5.333a5.333,5.333,0,0,0-.72-2.667H24a2.667,2.667,0,0,1,2.667,2.667ZM24,6.667A1.333,1.333,0,0,1,22.667,8h-8a1.333,1.333,0,0,1,0-2.667h8A1.333,1.333,0,0,1,24,6.667ZM24,12a1.333,1.333,0,0,1-1.333,1.333h-8a1.333,1.333,0,0,1,0-2.667h8A1.333,1.333,0,0,1,24,12Zm0,5.333a1.333,1.333,0,0,1-1.333,1.333h-8a1.333,1.333,0,0,1,0-2.667h8A1.333,1.333,0,0,1,24,17.333Z" transform="translate(1.333 1.333)" fill="#999"/>
  </g>
</svg>
